<mxfile host="app.diagrams.net" modified="2024-01-15T04:06:35.546Z" agent="Mozilla/5.0 (Windows NT 10.0; Win64; x64) AppleWebKit/537.36 (KHTML, like Gecko) Chrome/120.0.0.0 Safari/537.36" etag="xb8kQc_TqZvfgR1pdkMs" version="22.1.18" type="github">
  <diagram id="--nqma7Hxtt_wLqLNTel" name="Page-1">
    <mxGraphModel dx="1354" dy="607" grid="1" gridSize="10" guides="1" tooltips="1" connect="1" arrows="1" fold="1" page="1" pageScale="1" pageWidth="827" pageHeight="1169" math="0" shadow="0">
      <root>
        <mxCell id="0" />
        <mxCell id="1" parent="0" />
        <mxCell id="xnxxghSEEJ19CdkDyZbs-1" value="" style="rounded=0;whiteSpace=wrap;html=1;" parent="1" vertex="1">
          <mxGeometry x="50" y="150" width="360" height="430" as="geometry" />
        </mxCell>
        <mxCell id="xnxxghSEEJ19CdkDyZbs-2" style="edgeStyle=orthogonalEdgeStyle;rounded=0;orthogonalLoop=1;jettySize=auto;html=1;exitX=0.996;exitY=0.216;exitDx=0;exitDy=0;exitPerimeter=0;entryX=0.002;entryY=0.42;entryDx=0;entryDy=0;entryPerimeter=0;" parent="1" edge="1">
          <mxGeometry relative="1" as="geometry">
            <mxPoint x="189.51999999999998" y="232.92000000000007" as="sourcePoint" />
            <mxPoint x="250.27999999999997" y="232.79999999999995" as="targetPoint" />
            <Array as="points">
              <mxPoint x="240" y="233" />
              <mxPoint x="240" y="233" />
            </Array>
          </mxGeometry>
        </mxCell>
        <mxCell id="xnxxghSEEJ19CdkDyZbs-3" value="" style="rounded=1;whiteSpace=wrap;html=1;" parent="1" vertex="1">
          <mxGeometry x="70" y="180" width="120" height="370" as="geometry" />
        </mxCell>
        <mxCell id="xnxxghSEEJ19CdkDyZbs-4" value="App" style="text;html=1;strokeColor=none;fillColor=none;align=center;verticalAlign=middle;whiteSpace=wrap;rounded=0;fontStyle=4" parent="1" vertex="1">
          <mxGeometry x="80" y="185" width="40" height="20" as="geometry" />
        </mxCell>
        <mxCell id="xnxxghSEEJ19CdkDyZbs-5" value="VM in AWS Account" style="text;html=1;strokeColor=none;fillColor=none;align=center;verticalAlign=middle;whiteSpace=wrap;rounded=0;fontStyle=1" parent="1" vertex="1">
          <mxGeometry x="50" y="130" width="160" height="20" as="geometry" />
        </mxCell>
        <mxCell id="xnxxghSEEJ19CdkDyZbs-6" value="" style="rounded=0;whiteSpace=wrap;html=1;" parent="1" vertex="1">
          <mxGeometry x="600" y="150" width="200" height="200" as="geometry" />
        </mxCell>
        <mxCell id="xnxxghSEEJ19CdkDyZbs-7" value="UserManagement in AWS Account" style="text;html=1;strokeColor=none;fillColor=none;align=center;verticalAlign=middle;whiteSpace=wrap;rounded=0;fontStyle=1" parent="1" vertex="1">
          <mxGeometry x="600" y="120" width="200" height="30" as="geometry" />
        </mxCell>
        <mxCell id="xnxxghSEEJ19CdkDyZbs-8" value="#4 Token Response" style="text;html=1;strokeColor=none;fillColor=none;align=center;verticalAlign=middle;whiteSpace=wrap;rounded=0;" parent="1" vertex="1">
          <mxGeometry x="414" y="223" width="160" height="20" as="geometry" />
        </mxCell>
        <mxCell id="xnxxghSEEJ19CdkDyZbs-9" value="#3 Token Req w/ ClientID1" style="text;html=1;strokeColor=none;fillColor=none;align=center;verticalAlign=middle;whiteSpace=wrap;rounded=0;" parent="1" vertex="1">
          <mxGeometry x="430" y="190" width="160" height="20" as="geometry" />
        </mxCell>
        <mxCell id="xnxxghSEEJ19CdkDyZbs-10" value="" style="endArrow=classic;html=1;rounded=0;entryX=0;entryY=0.25;entryDx=0;entryDy=0;" parent="1" edge="1">
          <mxGeometry width="50" height="50" relative="1" as="geometry">
            <mxPoint x="390" y="210" as="sourcePoint" />
            <mxPoint x="620" y="210" as="targetPoint" />
          </mxGeometry>
        </mxCell>
        <mxCell id="xnxxghSEEJ19CdkDyZbs-11" value="" style="rounded=0;whiteSpace=wrap;html=1;" parent="1" vertex="1">
          <mxGeometry x="600" y="400" width="200" height="180" as="geometry" />
        </mxCell>
        <mxCell id="xnxxghSEEJ19CdkDyZbs-12" value="&amp;nbsp;Storage in AWS Account" style="text;html=1;strokeColor=none;fillColor=none;align=center;verticalAlign=middle;whiteSpace=wrap;rounded=0;fontStyle=1" parent="1" vertex="1">
          <mxGeometry x="605" y="380" width="190" height="20" as="geometry" />
        </mxCell>
        <mxCell id="xnxxghSEEJ19CdkDyZbs-13" value="#6 Access to the Resource&lt;br&gt;w/ Token1" style="text;html=1;strokeColor=none;fillColor=none;align=center;verticalAlign=middle;whiteSpace=wrap;rounded=0;" parent="1" vertex="1">
          <mxGeometry x="429.01" y="451" width="160" height="30" as="geometry" />
        </mxCell>
        <mxCell id="xnxxghSEEJ19CdkDyZbs-14" value="#7 Response from the resource in the AWS Account" style="text;html=1;strokeColor=none;fillColor=none;align=center;verticalAlign=middle;whiteSpace=wrap;rounded=0;" parent="1" vertex="1">
          <mxGeometry x="419.51" y="496" width="179.01" height="30" as="geometry" />
        </mxCell>
        <mxCell id="xnxxghSEEJ19CdkDyZbs-15" value="" style="curved=1;endArrow=classic;html=1;rounded=0;" parent="1" edge="1">
          <mxGeometry width="50" height="50" relative="1" as="geometry">
            <mxPoint x="200" y="280" as="sourcePoint" />
            <mxPoint x="192" y="481" as="targetPoint" />
            <Array as="points">
              <mxPoint x="90" y="270" />
              <mxPoint x="90" y="370" />
              <mxPoint x="90" y="500" />
            </Array>
          </mxGeometry>
        </mxCell>
        <mxCell id="xnxxghSEEJ19CdkDyZbs-16" value="" style="rounded=1;whiteSpace=wrap;html=1;" parent="1" vertex="1">
          <mxGeometry x="620" y="420" width="160" height="150" as="geometry" />
        </mxCell>
        <mxCell id="xnxxghSEEJ19CdkDyZbs-17" value="Amazon S3" style="text;html=1;strokeColor=none;fillColor=none;align=center;verticalAlign=middle;whiteSpace=wrap;rounded=0;fontStyle=4" parent="1" vertex="1">
          <mxGeometry x="620" y="540" width="160" height="20" as="geometry" />
        </mxCell>
        <mxCell id="xnxxghSEEJ19CdkDyZbs-18" style="edgeStyle=orthogonalEdgeStyle;rounded=0;orthogonalLoop=1;jettySize=auto;html=1;endArrow=classic;endFill=1;" parent="1" edge="1">
          <mxGeometry relative="1" as="geometry">
            <mxPoint x="190" y="480" as="sourcePoint" />
            <mxPoint x="620" y="480" as="targetPoint" />
          </mxGeometry>
        </mxCell>
        <mxCell id="xnxxghSEEJ19CdkDyZbs-19" style="edgeStyle=orthogonalEdgeStyle;rounded=0;orthogonalLoop=1;jettySize=auto;html=1;exitX=0;exitY=0.5;exitDx=0;exitDy=0;entryX=1;entryY=0.686;entryDx=0;entryDy=0;entryPerimeter=0;" parent="1" source="xnxxghSEEJ19CdkDyZbs-20" edge="1">
          <mxGeometry relative="1" as="geometry">
            <mxPoint x="190.5" y="417.81999999999994" as="targetPoint" />
          </mxGeometry>
        </mxCell>
        <mxCell id="xnxxghSEEJ19CdkDyZbs-20" value="" style="rounded=0;whiteSpace=wrap;html=1;" parent="1" vertex="1">
          <mxGeometry x="280.5" y="400" width="120" height="35" as="geometry" />
        </mxCell>
        <mxCell id="xnxxghSEEJ19CdkDyZbs-21" value="Process for User 1" style="text;html=1;strokeColor=none;fillColor=none;align=center;verticalAlign=middle;whiteSpace=wrap;rounded=0;" parent="1" vertex="1">
          <mxGeometry x="287" y="407.5" width="107" height="20" as="geometry" />
        </mxCell>
        <mxCell id="xnxxghSEEJ19CdkDyZbs-22" value="#1 Initiate App &lt;br&gt;by User 1" style="text;html=1;strokeColor=none;fillColor=none;align=center;verticalAlign=middle;whiteSpace=wrap;rounded=0;" parent="1" vertex="1">
          <mxGeometry x="185" y="380" width="105" height="40" as="geometry" />
        </mxCell>
        <mxCell id="xnxxghSEEJ19CdkDyZbs-23" value="#8 Response for User1&amp;nbsp;" style="text;html=1;strokeColor=none;fillColor=none;align=center;verticalAlign=middle;whiteSpace=wrap;rounded=0;" parent="1" vertex="1">
          <mxGeometry x="199.5" y="432" width="87.5" height="40" as="geometry" />
        </mxCell>
        <mxCell id="xnxxghSEEJ19CdkDyZbs-24" value="" style="curved=1;endArrow=classic;html=1;rounded=0;" parent="1" target="xnxxghSEEJ19CdkDyZbs-20" edge="1">
          <mxGeometry width="50" height="50" relative="1" as="geometry">
            <mxPoint x="190" y="450" as="sourcePoint" />
            <mxPoint x="335" y="436" as="targetPoint" />
            <Array as="points">
              <mxPoint x="280" y="460" />
            </Array>
          </mxGeometry>
        </mxCell>
        <mxCell id="xnxxghSEEJ19CdkDyZbs-25" value="" style="rounded=0;whiteSpace=wrap;html=1;" parent="1" vertex="1">
          <mxGeometry x="676.77" y="436" width="50" height="20" as="geometry" />
        </mxCell>
        <mxCell id="xnxxghSEEJ19CdkDyZbs-26" value="&lt;font style=&quot;font-size: 10px;&quot;&gt;PubKey1&lt;/font&gt;" style="text;html=1;strokeColor=none;fillColor=none;align=center;verticalAlign=middle;whiteSpace=wrap;rounded=0;" parent="1" vertex="1">
          <mxGeometry x="676.77" y="436" width="50" height="20" as="geometry" />
        </mxCell>
        <mxCell id="xnxxghSEEJ19CdkDyZbs-27" value="" style="curved=1;endArrow=classic;html=1;rounded=0;exitX=0.5;exitY=1;exitDx=0;exitDy=0;entryX=0;entryY=0.5;entryDx=0;entryDy=0;" parent="1" source="xnxxghSEEJ19CdkDyZbs-62" target="xnxxghSEEJ19CdkDyZbs-26" edge="1">
          <mxGeometry width="50" height="50" relative="1" as="geometry">
            <mxPoint x="676.76" y="310" as="sourcePoint" />
            <mxPoint x="520" y="360" as="targetPoint" />
            <Array as="points">
              <mxPoint x="570" y="450" />
            </Array>
          </mxGeometry>
        </mxCell>
        <mxCell id="xnxxghSEEJ19CdkDyZbs-28" value="" style="curved=1;endArrow=classic;html=1;rounded=0;entryX=0.25;entryY=1;entryDx=0;entryDy=0;" parent="1" target="xnxxghSEEJ19CdkDyZbs-26" edge="1">
          <mxGeometry width="50" height="50" relative="1" as="geometry">
            <mxPoint x="620" y="480" as="sourcePoint" />
            <mxPoint x="650" y="489" as="targetPoint" />
            <Array as="points">
              <mxPoint x="680" y="480" />
            </Array>
          </mxGeometry>
        </mxCell>
        <mxCell id="xnxxghSEEJ19CdkDyZbs-29" value="" style="curved=1;endArrow=classic;html=1;rounded=0;exitX=0.5;exitY=1;exitDx=0;exitDy=0;" parent="1" source="xnxxghSEEJ19CdkDyZbs-46" edge="1">
          <mxGeometry width="50" height="50" relative="1" as="geometry">
            <mxPoint x="720" y="500" as="sourcePoint" />
            <mxPoint x="620" y="526" as="targetPoint" />
            <Array as="points">
              <mxPoint x="720" y="540" />
            </Array>
          </mxGeometry>
        </mxCell>
        <mxCell id="xnxxghSEEJ19CdkDyZbs-30" value="check" style="text;html=1;strokeColor=none;fillColor=none;align=center;verticalAlign=middle;whiteSpace=wrap;rounded=0;" parent="1" vertex="1">
          <mxGeometry x="636.75" y="478.5" width="52.5" height="23" as="geometry" />
        </mxCell>
        <mxCell id="xnxxghSEEJ19CdkDyZbs-31" value="" style="rounded=1;whiteSpace=wrap;html=1;" parent="1" vertex="1">
          <mxGeometry x="250" y="180" width="140" height="190" as="geometry" />
        </mxCell>
        <mxCell id="xnxxghSEEJ19CdkDyZbs-32" value="Metadata Service" style="text;html=1;strokeColor=none;fillColor=none;align=center;verticalAlign=middle;whiteSpace=wrap;rounded=0;fontStyle=4" parent="1" vertex="1">
          <mxGeometry x="267.5" y="185" width="105" height="20" as="geometry" />
        </mxCell>
        <mxCell id="xnxxghSEEJ19CdkDyZbs-33" value="&lt;font style=&quot;font-size: 10px;&quot;&gt;http://169.254.169.254/latest/&lt;br&gt;meta-data/&lt;/font&gt;" style="text;html=1;strokeColor=none;fillColor=none;align=center;verticalAlign=middle;whiteSpace=wrap;rounded=0;fontStyle=4" parent="1" vertex="1">
          <mxGeometry x="249.5" y="330" width="140.5" height="40" as="geometry" />
        </mxCell>
        <mxCell id="xnxxghSEEJ19CdkDyZbs-34" value="" style="endArrow=classic;html=1;rounded=0;" parent="1" edge="1">
          <mxGeometry width="50" height="50" relative="1" as="geometry">
            <mxPoint x="620" y="526" as="sourcePoint" />
            <mxPoint x="190.25" y="526" as="targetPoint" />
          </mxGeometry>
        </mxCell>
        <mxCell id="xnxxghSEEJ19CdkDyZbs-35" value="" style="rounded=0;whiteSpace=wrap;html=1;" parent="1" vertex="1">
          <mxGeometry x="289.5" y="228.5" width="60" height="20" as="geometry" />
        </mxCell>
        <mxCell id="xnxxghSEEJ19CdkDyZbs-36" value="ClientID1" style="text;html=1;strokeColor=none;fillColor=none;align=center;verticalAlign=middle;whiteSpace=wrap;rounded=0;" parent="1" vertex="1">
          <mxGeometry x="290.5" y="228.5" width="60" height="20" as="geometry" />
        </mxCell>
        <mxCell id="xnxxghSEEJ19CdkDyZbs-37" style="edgeStyle=orthogonalEdgeStyle;rounded=0;orthogonalLoop=1;jettySize=auto;html=1;exitX=0;exitY=0.75;exitDx=0;exitDy=0;entryX=1.001;entryY=0.283;entryDx=0;entryDy=0;entryPerimeter=0;" parent="1" edge="1">
          <mxGeometry relative="1" as="geometry">
            <mxPoint x="294.5" y="280" as="sourcePoint" />
            <mxPoint x="190.1199999999999" y="279.71000000000004" as="targetPoint" />
            <Array as="points">
              <mxPoint x="220" y="280" />
              <mxPoint x="220" y="280" />
            </Array>
          </mxGeometry>
        </mxCell>
        <mxCell id="xnxxghSEEJ19CdkDyZbs-38" value="" style="curved=1;endArrow=classic;html=1;rounded=0;entryX=1.011;entryY=0.147;entryDx=0;entryDy=0;entryPerimeter=0;" parent="1" target="xnxxghSEEJ19CdkDyZbs-31" edge="1">
          <mxGeometry width="50" height="50" relative="1" as="geometry">
            <mxPoint x="350.5" y="242.5" as="sourcePoint" />
            <mxPoint x="410.5" y="200" as="targetPoint" />
            <Array as="points">
              <mxPoint x="370" y="240" />
            </Array>
          </mxGeometry>
        </mxCell>
        <mxCell id="xnxxghSEEJ19CdkDyZbs-39" value="#2 Token Req&amp;nbsp;" style="text;html=1;strokeColor=none;fillColor=none;align=center;verticalAlign=middle;whiteSpace=wrap;rounded=0;" parent="1" vertex="1">
          <mxGeometry x="105" y="215" width="85" height="36" as="geometry" />
        </mxCell>
        <mxCell id="xnxxghSEEJ19CdkDyZbs-40" value="#5 Token Response&amp;nbsp;" style="text;html=1;strokeColor=none;fillColor=default;align=center;verticalAlign=middle;whiteSpace=wrap;rounded=0;" parent="1" vertex="1">
          <mxGeometry x="192" y="286" width="122" height="20" as="geometry" />
        </mxCell>
        <mxCell id="xnxxghSEEJ19CdkDyZbs-41" value="" style="rounded=0;whiteSpace=wrap;html=1;" parent="1" vertex="1">
          <mxGeometry x="294.5" y="270" width="50" height="20" as="geometry" />
        </mxCell>
        <mxCell id="xnxxghSEEJ19CdkDyZbs-42" value="Token1" style="text;html=1;strokeColor=none;fillColor=none;align=center;verticalAlign=middle;whiteSpace=wrap;rounded=0;" parent="1" vertex="1">
          <mxGeometry x="294.5" y="270" width="50" height="20" as="geometry" />
        </mxCell>
        <mxCell id="xnxxghSEEJ19CdkDyZbs-43" value="" style="curved=1;endArrow=classic;html=1;rounded=0;entryX=1;entryY=0.5;entryDx=0;entryDy=0;exitX=1;exitY=0.5;exitDx=0;exitDy=0;" parent="1" source="xnxxghSEEJ19CdkDyZbs-31" target="xnxxghSEEJ19CdkDyZbs-42" edge="1">
          <mxGeometry width="50" height="50" relative="1" as="geometry">
            <mxPoint x="390" y="290" as="sourcePoint" />
            <mxPoint x="429" y="125" as="targetPoint" />
            <Array as="points">
              <mxPoint x="370" y="300" />
            </Array>
          </mxGeometry>
        </mxCell>
        <mxCell id="xnxxghSEEJ19CdkDyZbs-44" value="" style="rounded=0;whiteSpace=wrap;html=1;" parent="1" vertex="1">
          <mxGeometry x="80" y="370" width="50" height="20" as="geometry" />
        </mxCell>
        <mxCell id="xnxxghSEEJ19CdkDyZbs-45" value="Token1" style="text;html=1;strokeColor=none;fillColor=none;align=center;verticalAlign=middle;whiteSpace=wrap;rounded=0;" parent="1" vertex="1">
          <mxGeometry x="80" y="370" width="50" height="20" as="geometry" />
        </mxCell>
        <mxCell id="xnxxghSEEJ19CdkDyZbs-46" value="&lt;font style=&quot;font-size: 10px;&quot;&gt;Data&lt;/font&gt;" style="text;html=1;align=center;verticalAlign=middle;whiteSpace=wrap;rounded=0;strokeColor=default;" parent="1" vertex="1">
          <mxGeometry x="712.26" y="485" width="50" height="20" as="geometry" />
        </mxCell>
        <mxCell id="xnxxghSEEJ19CdkDyZbs-47" value="" style="rounded=1;whiteSpace=wrap;html=1;" parent="1" vertex="1">
          <mxGeometry x="630" y="196.5" width="158" height="143.5" as="geometry" />
        </mxCell>
        <mxCell id="xnxxghSEEJ19CdkDyZbs-48" value="IAM" style="text;html=1;strokeColor=none;fillColor=none;align=center;verticalAlign=middle;whiteSpace=wrap;rounded=0;fontStyle=4" parent="1" vertex="1">
          <mxGeometry x="726.77" y="200" width="56" height="15" as="geometry" />
        </mxCell>
        <mxCell id="xnxxghSEEJ19CdkDyZbs-49" value="Permissions" style="text;html=1;strokeColor=none;fillColor=none;align=center;verticalAlign=middle;whiteSpace=wrap;rounded=0;" parent="1" vertex="1">
          <mxGeometry x="643.5" y="270" width="76.5" height="30" as="geometry" />
        </mxCell>
        <mxCell id="xnxxghSEEJ19CdkDyZbs-50" value="" style="group" parent="1" vertex="1" connectable="0">
          <mxGeometry x="720" y="270" width="56.5" height="61.5" as="geometry" />
        </mxCell>
        <mxCell id="xnxxghSEEJ19CdkDyZbs-51" value="" style="rounded=0;whiteSpace=wrap;html=1;" parent="xnxxghSEEJ19CdkDyZbs-50" vertex="1">
          <mxGeometry width="56.5" height="61.5" as="geometry" />
        </mxCell>
        <mxCell id="xnxxghSEEJ19CdkDyZbs-52" value="" style="shape=umlDestroy;whiteSpace=wrap;html=1;strokeWidth=3;fillColor=#e51400;strokeColor=#B20000;fontColor=#ffffff;" parent="xnxxghSEEJ19CdkDyZbs-50" vertex="1">
          <mxGeometry x="7.5" y="41" width="7.38" height="9" as="geometry" />
        </mxCell>
        <mxCell id="xnxxghSEEJ19CdkDyZbs-53" value="" style="verticalLabelPosition=bottom;verticalAlign=top;html=1;shape=mxgraph.basic.tick;fillColor=#00CC00;strokeColor=#82b366;" parent="xnxxghSEEJ19CdkDyZbs-50" vertex="1">
          <mxGeometry x="6.5" y="10.5" width="9.75" height="10" as="geometry" />
        </mxCell>
        <mxCell id="xnxxghSEEJ19CdkDyZbs-54" value="" style="verticalLabelPosition=bottom;verticalAlign=top;html=1;shape=mxgraph.basic.tick;fillColor=#00CC00;strokeColor=#82b366;" parent="xnxxghSEEJ19CdkDyZbs-50" vertex="1">
          <mxGeometry x="6.5" y="24.5" width="9.75" height="10" as="geometry" />
        </mxCell>
        <mxCell id="xnxxghSEEJ19CdkDyZbs-55" value="- Role A (Authenticated)" style="text;html=1;strokeColor=none;fillColor=none;align=center;verticalAlign=middle;whiteSpace=wrap;rounded=0;" parent="1" vertex="1">
          <mxGeometry x="634.5" y="248.5" width="145.5" height="20" as="geometry" />
        </mxCell>
        <mxCell id="xnxxghSEEJ19CdkDyZbs-56" value="" style="rounded=1;whiteSpace=wrap;html=1;" parent="1" vertex="1">
          <mxGeometry x="620" y="188.5" width="90" height="51.5" as="geometry" />
        </mxCell>
        <mxCell id="xnxxghSEEJ19CdkDyZbs-57" value="AWS STS" style="text;html=1;strokeColor=none;fillColor=none;align=center;verticalAlign=middle;whiteSpace=wrap;rounded=0;fontStyle=4" parent="1" vertex="1">
          <mxGeometry x="633" y="206.75" width="60" height="15" as="geometry" />
        </mxCell>
        <mxCell id="xnxxghSEEJ19CdkDyZbs-58" value="Token Endpoint for ClientID1" style="text;html=1;strokeColor=none;fillColor=none;align=center;verticalAlign=middle;whiteSpace=wrap;rounded=0;fontStyle=4" parent="1" vertex="1">
          <mxGeometry x="600" y="155" width="190" height="30" as="geometry" />
        </mxCell>
        <mxCell id="xnxxghSEEJ19CdkDyZbs-59" value="" style="rounded=0;whiteSpace=wrap;html=1;" parent="1" vertex="1">
          <mxGeometry x="556" y="228.5" width="50" height="20" as="geometry" />
        </mxCell>
        <mxCell id="xnxxghSEEJ19CdkDyZbs-60" value="Token1" style="text;html=1;strokeColor=none;fillColor=none;align=center;verticalAlign=middle;whiteSpace=wrap;rounded=0;" parent="1" vertex="1">
          <mxGeometry x="556" y="228.5" width="50" height="20" as="geometry" />
        </mxCell>
        <mxCell id="xnxxghSEEJ19CdkDyZbs-61" value="" style="rounded=0;whiteSpace=wrap;html=1;" parent="1" vertex="1">
          <mxGeometry x="556" y="258.25" width="50" height="20" as="geometry" />
        </mxCell>
        <mxCell id="xnxxghSEEJ19CdkDyZbs-62" value="&lt;font style=&quot;font-size: 10px;&quot;&gt;PubKey1&lt;/font&gt;" style="text;html=1;strokeColor=none;fillColor=none;align=center;verticalAlign=middle;whiteSpace=wrap;rounded=0;" parent="1" vertex="1">
          <mxGeometry x="556" y="258.25" width="50" height="20" as="geometry" />
        </mxCell>
        <mxCell id="xnxxghSEEJ19CdkDyZbs-63" style="edgeStyle=orthogonalEdgeStyle;rounded=0;orthogonalLoop=1;jettySize=auto;html=1;exitX=0;exitY=0.75;exitDx=0;exitDy=0;entryX=1;entryY=0.5;entryDx=0;entryDy=0;" parent="1" source="xnxxghSEEJ19CdkDyZbs-56" target="xnxxghSEEJ19CdkDyZbs-31" edge="1">
          <mxGeometry relative="1" as="geometry">
            <Array as="points">
              <mxPoint x="620" y="220" />
              <mxPoint x="420" y="220" />
              <mxPoint x="420" y="275" />
            </Array>
          </mxGeometry>
        </mxCell>
        <mxCell id="xnxxghSEEJ19CdkDyZbs-64" value="&lt;font style=&quot;&quot;&gt;&lt;span style=&quot;font-size: 16px;&quot;&gt;laundry service in dormitory&lt;br&gt;&lt;/span&gt;&lt;/font&gt;" style="text;html=1;strokeColor=none;fillColor=none;align=center;verticalAlign=middle;whiteSpace=wrap;rounded=0;fontStyle=1;strokeWidth=1;" parent="1" vertex="1">
          <mxGeometry x="280" y="600" width="350" height="30" as="geometry" />
        </mxCell>
        <mxCell id="xnxxghSEEJ19CdkDyZbs-65" value="" style="shape=image;verticalLabelPosition=bottom;labelBackgroundColor=default;verticalAlign=top;aspect=fixed;imageAspect=0;image=https://1.bp.blogspot.com/-bAOIfmOoIvI/VY4WmqzWeVI/AAAAAAAAusA/wpJ8Jc1VgZ0/s400/job_kanrinin.png;" parent="1" vertex="1">
          <mxGeometry x="294.5" y="205" width="127.88" height="111.25" as="geometry" />
        </mxCell>
        <mxCell id="xnxxghSEEJ19CdkDyZbs-66" value="" style="shape=image;verticalLabelPosition=bottom;labelBackgroundColor=default;verticalAlign=top;aspect=fixed;imageAspect=0;image=https://3.bp.blogspot.com/-N5-m3lUqI3s/Urlmh_XEuFI/AAAAAAAAcG8/52MByZBegbw/s400/coin_laundry.png;" parent="1" vertex="1">
          <mxGeometry x="609.99" y="414.9" width="180" height="160.2" as="geometry" />
        </mxCell>
        <mxCell id="xnxxghSEEJ19CdkDyZbs-67" value="" style="shape=image;verticalLabelPosition=bottom;labelBackgroundColor=default;verticalAlign=top;aspect=fixed;imageAspect=0;image=https://3.bp.blogspot.com/-RVJKP2Uo4dc/Wp94HD7Y8sI/AAAAAAABKq0/R9aeQdDvQagyJB35mHG_LXIkZq_twBZSwCLcBGAs/s400/kouji_maintenance.png;" parent="1" vertex="1">
          <mxGeometry x="538.74" y="306.62" width="116.76" height="116.76" as="geometry" />
        </mxCell>
        <mxCell id="xnxxghSEEJ19CdkDyZbs-68" value="" style="shape=image;verticalLabelPosition=bottom;labelBackgroundColor=default;verticalAlign=top;aspect=fixed;imageAspect=0;image=https://2.bp.blogspot.com/-4g1YNkXOp7M/VozfLNjbVzI/AAAAAAAA2hg/Q8TpEWeODhw/s400/kaisya_uketsuke_woman.png;" parent="1" vertex="1">
          <mxGeometry x="689.25" y="202.29999999999998" width="126" height="137.7" as="geometry" />
        </mxCell>
        <mxCell id="xnxxghSEEJ19CdkDyZbs-69" value="" style="shape=image;verticalLabelPosition=bottom;labelBackgroundColor=default;verticalAlign=top;aspect=fixed;imageAspect=0;image=https://4.bp.blogspot.com/-Ife4UyJMcKk/XAY5_dw8j0I/AAAAAAABQgg/zWFTiubCd18-XCgoiZ0l2nno0NaPSfjuACLcBGAs/s400/money_coin_case.png;" parent="1" vertex="1">
          <mxGeometry x="458.73" y="231.14000000000001" width="80.01" height="80.01" as="geometry" />
        </mxCell>
        <mxCell id="xnxxghSEEJ19CdkDyZbs-70" value="" style="shape=image;verticalLabelPosition=bottom;labelBackgroundColor=default;verticalAlign=top;aspect=fixed;imageAspect=0;image=https://4.bp.blogspot.com/-dTlkBldkLKk/Ws2wFOTXc4I/AAAAAAABLaY/hvoaK6JB_ToaMJbpRB8s90E2zDXltDaDACLcBGAs/s400/smartphone_neru_schoolboy.png;direction=east;" parent="1" vertex="1">
          <mxGeometry x="290.5" y="394.81" width="142.51" height="101.19" as="geometry" />
        </mxCell>
        <mxCell id="xnxxghSEEJ19CdkDyZbs-71" value="" style="shape=image;verticalLabelPosition=bottom;labelBackgroundColor=default;verticalAlign=top;aspect=fixed;imageAspect=0;image=https://3.bp.blogspot.com/-r49EiuJfyuM/XBRfDu-gOCI/AAAAAAABQ2A/vWaPXTCcLeAGYS3wU4fI8fUJ4dwWEul8ACLcBGAs/s500/job_kaji_daikou_man.png;" parent="1" vertex="1">
          <mxGeometry x="105" y="448" width="165" height="136.95" as="geometry" />
        </mxCell>
        <mxCell id="xnxxghSEEJ19CdkDyZbs-72" value="" style="shape=image;verticalLabelPosition=bottom;labelBackgroundColor=default;verticalAlign=top;aspect=fixed;imageAspect=0;image=https://4.bp.blogspot.com/-Ife4UyJMcKk/XAY5_dw8j0I/AAAAAAABQgg/zWFTiubCd18-XCgoiZ0l2nno0NaPSfjuACLcBGAs/s400/money_coin_case.png;" parent="1" vertex="1">
          <mxGeometry x="275" y="489.99" width="80.01" height="80.01" as="geometry" />
        </mxCell>
        <mxCell id="xnxxghSEEJ19CdkDyZbs-73" value="" style="shape=image;verticalLabelPosition=bottom;labelBackgroundColor=default;verticalAlign=top;aspect=fixed;imageAspect=0;image=https://4.bp.blogspot.com/-GqNabXK98EU/W8hD_ZTDjbI/AAAAAAABPhQ/_tyvovd17H0UUsrmoODHJ_UTaQsqtC0EQCLcBGAs/s400/sentaku_kago.png;" parent="1" vertex="1">
          <mxGeometry x="190" y="496" width="85" height="85" as="geometry" />
        </mxCell>
        <mxCell id="xnxxghSEEJ19CdkDyZbs-74" value="" style="shape=image;verticalLabelPosition=bottom;labelBackgroundColor=default;verticalAlign=top;aspect=fixed;imageAspect=0;image=https://3.bp.blogspot.com/-r49EiuJfyuM/XBRfDu-gOCI/AAAAAAABQ2A/vWaPXTCcLeAGYS3wU4fI8fUJ4dwWEul8ACLcBGAs/s500/job_kaji_daikou_man.png;" parent="1" vertex="1">
          <mxGeometry x="85" y="231.14000000000001" width="165" height="136.95" as="geometry" />
        </mxCell>
        <mxCell id="xnxxghSEEJ19CdkDyZbs-75" value="" style="shape=image;verticalLabelPosition=bottom;labelBackgroundColor=default;verticalAlign=top;aspect=fixed;imageAspect=0;image=https://2.bp.blogspot.com/-JuPqjrzjihk/Vw8i-V2cLHI/AAAAAAAA5v4/P79c0h5HFt4Z4HTmfvY5fPgsufkimIECQCLcB/s400/building_school_gakuseiryou.png;" parent="1" vertex="1">
          <mxGeometry x="355.01" y="109.44" width="83.76" height="90.56" as="geometry" />
        </mxCell>
        <mxCell id="CAUh66trgYHNd2-xVBbW-1" value="&lt;span style=&quot;font-weight: normal;&quot;&gt;&lt;font style=&quot;font-size: 14px;&quot;&gt;copyright developer-onizuka&lt;/font&gt;&lt;/span&gt;" style="text;html=1;strokeColor=none;fillColor=none;align=center;verticalAlign=middle;whiteSpace=wrap;rounded=0;fontStyle=1;strokeWidth=1;rotation=-15;" vertex="1" parent="1">
          <mxGeometry x="340" y="360" width="197.5" height="20" as="geometry" />
        </mxCell>
      </root>
    </mxGraphModel>
  </diagram>
</mxfile>
